<?xml version="1.0" encoding="UTF-8" standalone="no"?>
<!DOCTYPE svg PUBLIC "-//W3C//DTD SVG 1.1//EN"
 "http://www.w3.org/Graphics/SVG/1.1/DTD/svg11.dtd">
<!-- Generated by graphviz version 2.47.3 (20210619.1520)
 -->
<!-- Title: dependencies Pages: 1 -->
<svg width="1598pt" height="247pt"
 viewBox="0.00 0.00 1598.00 246.80" xmlns="http://www.w3.org/2000/svg" xmlns:xlink="http://www.w3.org/1999/xlink">
<g id="graph0" class="graph" transform="scale(1 1) rotate(0) translate(4 242.8)">
<title>dependencies</title>
<polygon fill="white" stroke="transparent" points="-4,4 -4,-242.8 1594,-242.8 1594,4 -4,4"/>
<text text-anchor="middle" x="795" y="-8.2" font-family="sans-serif" font-size="14.00">dependencies</text>
<g id="clust7" class="cluster">
<title>cluster_AppModule</title>
<polygon fill="none" stroke="black" stroke-dasharray="1,5" points="8,-32.8 8,-230.8 1582,-230.8 1582,-32.8 8,-32.8"/>
</g>
<g id="clust8" class="cluster">
<title>cluster_AppModule_declarations</title>
<polygon fill="none" stroke="black" points="339,-40.8 339,-92.8 1574,-92.8 1574,-40.8 339,-40.8"/>
</g>
<g id="clust18" class="cluster">
<title>cluster_AppModule_imports</title>
<polygon fill="none" stroke="black" points="16,-40.8 16,-92.8 331,-92.8 331,-40.8 16,-40.8"/>
</g>
<g id="clust20" class="cluster">
<title>cluster_AppModule_bootstrap</title>
<polygon fill="none" stroke="black" points="793,-170.8 793,-222.8 917,-222.8 917,-170.8 793,-170.8"/>
</g>
<!-- AppComponent -->
<g id="node1" class="node">
<title>AppComponent</title>
<polygon fill="#ffffb3" stroke="black" points="1565.94,-84.8 1460.06,-84.8 1460.06,-48.8 1565.94,-48.8 1565.94,-84.8"/>
<text text-anchor="middle" x="1513" y="-62.6" font-family="Times,serif" font-size="14.00">AppComponent</text>
</g>
<!-- AppModule -->
<g id="node10" class="node">
<title>AppModule</title>
<polygon fill="#8dd3c7" stroke="black" points="896.66,-149.8 893.66,-153.8 872.66,-153.8 869.66,-149.8 813.34,-149.8 813.34,-113.8 896.66,-113.8 896.66,-149.8"/>
<text text-anchor="middle" x="855" y="-127.6" font-family="Times,serif" font-size="14.00">AppModule</text>
</g>
<!-- AppComponent&#45;&gt;AppModule -->
<g id="edge1" class="edge">
<title>AppComponent&#45;&gt;AppModule</title>
<path fill="none" stroke="black" d="M1513,-85.05C1513,-107.82 1513,-143.8 1513,-143.8 1513,-143.8 906.66,-143.8 906.66,-143.8"/>
<polygon fill="black" stroke="black" points="906.66,-140.3 896.66,-143.8 906.66,-147.3 906.66,-140.3"/>
</g>
<!-- DialogComponent -->
<g id="node2" class="node">
<title>DialogComponent</title>
<polygon fill="#ffffb3" stroke="black" points="1442.94,-84.8 1323.06,-84.8 1323.06,-48.8 1442.94,-48.8 1442.94,-84.8"/>
<text text-anchor="middle" x="1383" y="-62.6" font-family="Times,serif" font-size="14.00">DialogComponent</text>
</g>
<!-- DialogComponent&#45;&gt;AppModule -->
<g id="edge2" class="edge">
<title>DialogComponent&#45;&gt;AppModule</title>
<path fill="none" stroke="black" d="M1383,-85.08C1383,-106.12 1383,-137.8 1383,-137.8 1383,-137.8 906.87,-137.8 906.87,-137.8"/>
<polygon fill="black" stroke="black" points="906.87,-134.3 896.87,-137.8 906.87,-141.3 906.87,-134.3"/>
</g>
<!-- HelpComponent -->
<g id="node3" class="node">
<title>HelpComponent</title>
<polygon fill="#ffffb3" stroke="black" points="1305.05,-84.8 1196.95,-84.8 1196.95,-48.8 1305.05,-48.8 1305.05,-84.8"/>
<text text-anchor="middle" x="1251" y="-62.6" font-family="Times,serif" font-size="14.00">HelpComponent</text>
</g>
<!-- HelpComponent&#45;&gt;AppModule -->
<g id="edge3" class="edge">
<title>HelpComponent&#45;&gt;AppModule</title>
<path fill="none" stroke="black" d="M1251,-84.91C1251,-104.14 1251,-131.8 1251,-131.8 1251,-131.8 907,-131.8 907,-131.8"/>
<polygon fill="black" stroke="black" points="907,-128.3 897,-131.8 907,-135.3 907,-128.3"/>
</g>
<!-- LoginComponent -->
<g id="node4" class="node">
<title>LoginComponent</title>
<polygon fill="#ffffb3" stroke="black" points="1178.28,-84.8 1063.72,-84.8 1063.72,-48.8 1178.28,-48.8 1178.28,-84.8"/>
<text text-anchor="middle" x="1121" y="-62.6" font-family="Times,serif" font-size="14.00">LoginComponent</text>
</g>
<!-- LoginComponent&#45;&gt;AppModule -->
<g id="edge4" class="edge">
<title>LoginComponent&#45;&gt;AppModule</title>
<path fill="none" stroke="black" d="M1121,-84.82C1121,-102.17 1121,-125.8 1121,-125.8 1121,-125.8 906.86,-125.8 906.86,-125.8"/>
<polygon fill="black" stroke="black" points="906.86,-122.3 896.86,-125.8 906.86,-129.3 906.86,-122.3"/>
</g>
<!-- MapComponent -->
<g id="node5" class="node">
<title>MapComponent</title>
<polygon fill="#ffffb3" stroke="black" points="1045.49,-84.8 938.51,-84.8 938.51,-48.8 1045.49,-48.8 1045.49,-84.8"/>
<text text-anchor="middle" x="992" y="-62.6" font-family="Times,serif" font-size="14.00">MapComponent</text>
</g>
<!-- MapComponent&#45;&gt;AppModule -->
<g id="edge5" class="edge">
<title>MapComponent&#45;&gt;AppModule</title>
<path fill="none" stroke="black" d="M992,-85.04C992,-100.37 992,-119.8 992,-119.8 992,-119.8 906.85,-119.8 906.85,-119.8"/>
<polygon fill="black" stroke="black" points="906.85,-116.3 896.85,-119.8 906.85,-123.3 906.85,-116.3"/>
</g>
<!-- StatisticsComponent -->
<g id="node6" class="node">
<title>StatisticsComponent</title>
<polygon fill="#ffffb3" stroke="black" points="920.89,-84.8 789.11,-84.8 789.11,-48.8 920.89,-48.8 920.89,-84.8"/>
<text text-anchor="middle" x="855" y="-62.6" font-family="Times,serif" font-size="14.00">StatisticsComponent</text>
</g>
<!-- StatisticsComponent&#45;&gt;AppModule -->
<g id="edge6" class="edge">
<title>StatisticsComponent&#45;&gt;AppModule</title>
<path fill="none" stroke="black" d="M855,-84.91C855,-84.91 855,-103.79 855,-103.79"/>
<polygon fill="black" stroke="black" points="851.5,-103.79 855,-113.79 858.5,-103.79 851.5,-103.79"/>
</g>
<!-- ToolbarComponent -->
<g id="node7" class="node">
<title>ToolbarComponent</title>
<polygon fill="#ffffb3" stroke="black" points="770.65,-84.8 645.35,-84.8 645.35,-48.8 770.65,-48.8 770.65,-84.8"/>
<text text-anchor="middle" x="708" y="-62.6" font-family="Times,serif" font-size="14.00">ToolbarComponent</text>
</g>
<!-- ToolbarComponent&#45;&gt;AppModule -->
<g id="edge7" class="edge">
<title>ToolbarComponent&#45;&gt;AppModule</title>
<path fill="none" stroke="black" d="M708,-85.04C708,-100.37 708,-119.8 708,-119.8 708,-119.8 803.27,-119.8 803.27,-119.8"/>
<polygon fill="black" stroke="black" points="803.27,-123.3 813.27,-119.8 803.27,-116.3 803.27,-123.3"/>
</g>
<!-- UserListComponent -->
<g id="node8" class="node">
<title>UserListComponent</title>
<polygon fill="#ffffb3" stroke="black" points="626.54,-84.8 497.46,-84.8 497.46,-48.8 626.54,-48.8 626.54,-84.8"/>
<text text-anchor="middle" x="562" y="-62.6" font-family="Times,serif" font-size="14.00">UserListComponent</text>
</g>
<!-- UserListComponent&#45;&gt;AppModule -->
<g id="edge8" class="edge">
<title>UserListComponent&#45;&gt;AppModule</title>
<path fill="none" stroke="black" d="M562,-84.82C562,-102.17 562,-125.8 562,-125.8 562,-125.8 803.33,-125.8 803.33,-125.8"/>
<polygon fill="black" stroke="black" points="803.33,-129.3 813.33,-125.8 803.33,-122.3 803.33,-129.3"/>
</g>
<!-- ZoneListComponent -->
<g id="node9" class="node">
<title>ZoneListComponent</title>
<polygon fill="#ffffb3" stroke="black" points="478.88,-84.8 347.12,-84.8 347.12,-48.8 478.88,-48.8 478.88,-84.8"/>
<text text-anchor="middle" x="413" y="-62.6" font-family="Times,serif" font-size="14.00">ZoneListComponent</text>
</g>
<!-- ZoneListComponent&#45;&gt;AppModule -->
<g id="edge9" class="edge">
<title>ZoneListComponent&#45;&gt;AppModule</title>
<path fill="none" stroke="black" d="M413,-84.91C413,-104.14 413,-131.8 413,-131.8 413,-131.8 803.02,-131.8 803.02,-131.8"/>
<polygon fill="black" stroke="black" points="803.02,-135.3 813.02,-131.8 803.02,-128.3 803.02,-135.3"/>
</g>
<!-- AppComponent  -->
<g id="node13" class="node">
<title>AppComponent </title>
<polygon fill="#80b1d3" stroke="black" points="909.44,-214.8 800.56,-214.8 800.56,-178.8 909.44,-178.8 909.44,-214.8"/>
<text text-anchor="middle" x="855" y="-192.6" font-family="Times,serif" font-size="14.00">AppComponent </text>
</g>
<!-- AppModule&#45;&gt;AppComponent  -->
<g id="edge12" class="edge">
<title>AppModule&#45;&gt;AppComponent </title>
<path fill="none" stroke="black" stroke-dasharray="1,5" d="M855,-149.91C855,-149.91 855,-168.79 855,-168.79"/>
<polygon fill="black" stroke="black" points="851.5,-168.79 855,-178.79 858.5,-168.79 851.5,-168.79"/>
</g>
<!-- AngularMaterialModule -->
<g id="node11" class="node">
<title>AngularMaterialModule</title>
<polygon fill="#8dd3c7" stroke="black" points="323.34,-84.8 320.34,-88.8 299.34,-88.8 296.34,-84.8 170.66,-84.8 170.66,-48.8 323.34,-48.8 323.34,-84.8"/>
<text text-anchor="middle" x="247" y="-62.6" font-family="Times,serif" font-size="14.00">AngularMaterialModule</text>
</g>
<!-- AngularMaterialModule&#45;&gt;AppModule -->
<g id="edge10" class="edge">
<title>AngularMaterialModule&#45;&gt;AppModule</title>
<path fill="none" stroke="black" d="M247,-85.08C247,-106.12 247,-137.8 247,-137.8 247,-137.8 803.21,-137.8 803.21,-137.8"/>
<polygon fill="black" stroke="black" points="803.21,-141.3 813.21,-137.8 803.21,-134.3 803.21,-141.3"/>
</g>
<!-- AppRoutingModule -->
<g id="node12" class="node">
<title>AppRoutingModule</title>
<polygon fill="#8dd3c7" stroke="black" points="152.27,-84.8 149.27,-88.8 128.27,-88.8 125.27,-84.8 23.73,-84.8 23.73,-48.8 152.27,-48.8 152.27,-84.8"/>
<text text-anchor="middle" x="88" y="-62.6" font-family="Times,serif" font-size="14.00">AppRoutingModule</text>
</g>
<!-- AppRoutingModule&#45;&gt;AppModule -->
<g id="edge11" class="edge">
<title>AppRoutingModule&#45;&gt;AppModule</title>
<path fill="none" stroke="black" d="M88,-85.05C88,-107.82 88,-143.8 88,-143.8 88,-143.8 803.22,-143.8 803.22,-143.8"/>
<polygon fill="black" stroke="black" points="803.22,-147.3 813.22,-143.8 803.22,-140.3 803.22,-147.3"/>
</g>
</g>
</svg>
