<?xml version="1.0" encoding="UTF-8" standalone="no"?>
<!DOCTYPE svg PUBLIC "-//W3C//DTD SVG 1.1//EN"
 "http://www.w3.org/Graphics/SVG/1.1/DTD/svg11.dtd">
<!-- Generated by graphviz version 2.47.3 (20210619.1520)
 -->
<!-- Title: dependencies Pages: 1 -->
<svg width="1598pt" height="247pt"
 viewBox="0.00 0.00 1598.00 246.80" xmlns="http://www.w3.org/2000/svg" xmlns:xlink="http://www.w3.org/1999/xlink">
<g id="graph0" class="graph" transform="scale(1 1) rotate(0) translate(4 242.8)">
<title>dependencies</title>
<polygon fill="white" stroke="transparent" points="-4,4 -4,-242.8 1594,-242.8 1594,4 -4,4"/>
<text text-anchor="middle" x="795" y="-8.2" font-family="sans-serif" font-size="14.00">dependencies</text>
<g id="clust1" class="cluster">
<title>cluster_AppModule</title>
<polygon fill="none" stroke="black" stroke-dasharray="1,5" points="8,-32.8 8,-230.8 1582,-230.8 1582,-32.8 8,-32.8"/>
</g>
<g id="clust14" class="cluster">
<title>cluster_AppModule_bootstrap</title>
<polygon fill="none" stroke="black" points="736,-170.8 736,-222.8 860,-222.8 860,-170.8 736,-170.8"/>
</g>
<g id="clust12" class="cluster">
<title>cluster_AppModule_imports</title>
<polygon fill="none" stroke="black" points="1259,-40.8 1259,-92.8 1574,-92.8 1574,-40.8 1259,-40.8"/>
</g>
<g id="clust2" class="cluster">
<title>cluster_AppModule_declarations</title>
<polygon fill="none" stroke="black" points="16,-40.8 16,-92.8 1251,-92.8 1251,-40.8 16,-40.8"/>
</g>
<!-- AppComponent -->
<g id="node1" class="node">
<title>AppComponent</title>
<polygon fill="#ffffb3" stroke="black" points="1242.94,-84.8 1137.06,-84.8 1137.06,-48.8 1242.94,-48.8 1242.94,-84.8"/>
<text text-anchor="middle" x="1190" y="-62.6" font-family="Times,serif" font-size="14.00">AppComponent</text>
</g>
<!-- AppModule -->
<g id="node10" class="node">
<title>AppModule</title>
<polygon fill="#8dd3c7" stroke="black" points="839.66,-149.8 836.66,-153.8 815.66,-153.8 812.66,-149.8 756.34,-149.8 756.34,-113.8 839.66,-113.8 839.66,-149.8"/>
<text text-anchor="middle" x="798" y="-127.6" font-family="Times,serif" font-size="14.00">AppModule</text>
</g>
<!-- AppComponent&#45;&gt;AppModule -->
<g id="edge1" class="edge">
<title>AppComponent&#45;&gt;AppModule</title>
<path fill="none" stroke="black" d="M1190,-84.91C1190,-104.14 1190,-131.8 1190,-131.8 1190,-131.8 849.95,-131.8 849.95,-131.8"/>
<polygon fill="black" stroke="black" points="849.95,-128.3 839.95,-131.8 849.95,-135.3 849.95,-128.3"/>
</g>
<!-- DialogComponent -->
<g id="node2" class="node">
<title>DialogComponent</title>
<polygon fill="#ffffb3" stroke="black" points="1119.94,-84.8 1000.06,-84.8 1000.06,-48.8 1119.94,-48.8 1119.94,-84.8"/>
<text text-anchor="middle" x="1060" y="-62.6" font-family="Times,serif" font-size="14.00">DialogComponent</text>
</g>
<!-- DialogComponent&#45;&gt;AppModule -->
<g id="edge2" class="edge">
<title>DialogComponent&#45;&gt;AppModule</title>
<path fill="none" stroke="black" d="M1060,-84.82C1060,-102.17 1060,-125.8 1060,-125.8 1060,-125.8 849.8,-125.8 849.8,-125.8"/>
<polygon fill="black" stroke="black" points="849.8,-122.3 839.8,-125.8 849.8,-129.3 849.8,-122.3"/>
</g>
<!-- HelpComponent -->
<g id="node3" class="node">
<title>HelpComponent</title>
<polygon fill="#ffffb3" stroke="black" points="982.05,-84.8 873.95,-84.8 873.95,-48.8 982.05,-48.8 982.05,-84.8"/>
<text text-anchor="middle" x="928" y="-62.6" font-family="Times,serif" font-size="14.00">HelpComponent</text>
</g>
<!-- HelpComponent&#45;&gt;AppModule -->
<g id="edge3" class="edge">
<title>HelpComponent&#45;&gt;AppModule</title>
<path fill="none" stroke="black" d="M928,-85.04C928,-100.37 928,-119.8 928,-119.8 928,-119.8 849.85,-119.8 849.85,-119.8"/>
<polygon fill="black" stroke="black" points="849.85,-116.3 839.85,-119.8 849.85,-123.3 849.85,-116.3"/>
</g>
<!-- LoginComponent -->
<g id="node4" class="node">
<title>LoginComponent</title>
<polygon fill="#ffffb3" stroke="black" points="855.28,-84.8 740.72,-84.8 740.72,-48.8 855.28,-48.8 855.28,-84.8"/>
<text text-anchor="middle" x="798" y="-62.6" font-family="Times,serif" font-size="14.00">LoginComponent</text>
</g>
<!-- LoginComponent&#45;&gt;AppModule -->
<g id="edge4" class="edge">
<title>LoginComponent&#45;&gt;AppModule</title>
<path fill="none" stroke="black" d="M798,-84.91C798,-84.91 798,-103.79 798,-103.79"/>
<polygon fill="black" stroke="black" points="794.5,-103.79 798,-113.79 801.5,-103.79 794.5,-103.79"/>
</g>
<!-- MapComponent -->
<g id="node5" class="node">
<title>MapComponent</title>
<polygon fill="#ffffb3" stroke="black" points="722.49,-84.8 615.51,-84.8 615.51,-48.8 722.49,-48.8 722.49,-84.8"/>
<text text-anchor="middle" x="669" y="-62.6" font-family="Times,serif" font-size="14.00">MapComponent</text>
</g>
<!-- MapComponent&#45;&gt;AppModule -->
<g id="edge5" class="edge">
<title>MapComponent&#45;&gt;AppModule</title>
<path fill="none" stroke="black" d="M669,-85.04C669,-100.37 669,-119.8 669,-119.8 669,-119.8 746.12,-119.8 746.12,-119.8"/>
<polygon fill="black" stroke="black" points="746.12,-123.3 756.12,-119.8 746.12,-116.3 746.12,-123.3"/>
</g>
<!-- StatisticsComponent -->
<g id="node6" class="node">
<title>StatisticsComponent</title>
<polygon fill="#ffffb3" stroke="black" points="597.89,-84.8 466.11,-84.8 466.11,-48.8 597.89,-48.8 597.89,-84.8"/>
<text text-anchor="middle" x="532" y="-62.6" font-family="Times,serif" font-size="14.00">StatisticsComponent</text>
</g>
<!-- StatisticsComponent&#45;&gt;AppModule -->
<g id="edge6" class="edge">
<title>StatisticsComponent&#45;&gt;AppModule</title>
<path fill="none" stroke="black" d="M532,-84.82C532,-102.17 532,-125.8 532,-125.8 532,-125.8 746.14,-125.8 746.14,-125.8"/>
<polygon fill="black" stroke="black" points="746.14,-129.3 756.14,-125.8 746.14,-122.3 746.14,-129.3"/>
</g>
<!-- ToolbarComponent -->
<g id="node7" class="node">
<title>ToolbarComponent</title>
<polygon fill="#ffffb3" stroke="black" points="447.65,-84.8 322.35,-84.8 322.35,-48.8 447.65,-48.8 447.65,-84.8"/>
<text text-anchor="middle" x="385" y="-62.6" font-family="Times,serif" font-size="14.00">ToolbarComponent</text>
</g>
<!-- ToolbarComponent&#45;&gt;AppModule -->
<g id="edge7" class="edge">
<title>ToolbarComponent&#45;&gt;AppModule</title>
<path fill="none" stroke="black" d="M385,-84.91C385,-104.14 385,-131.8 385,-131.8 385,-131.8 746.13,-131.8 746.13,-131.8"/>
<polygon fill="black" stroke="black" points="746.13,-135.3 756.13,-131.8 746.13,-128.3 746.13,-135.3"/>
</g>
<!-- UserListComponent -->
<g id="node8" class="node">
<title>UserListComponent</title>
<polygon fill="#ffffb3" stroke="black" points="303.54,-84.8 174.46,-84.8 174.46,-48.8 303.54,-48.8 303.54,-84.8"/>
<text text-anchor="middle" x="239" y="-62.6" font-family="Times,serif" font-size="14.00">UserListComponent</text>
</g>
<!-- UserListComponent&#45;&gt;AppModule -->
<g id="edge8" class="edge">
<title>UserListComponent&#45;&gt;AppModule</title>
<path fill="none" stroke="black" d="M239,-85.08C239,-106.12 239,-137.8 239,-137.8 239,-137.8 745.98,-137.8 745.98,-137.8"/>
<polygon fill="black" stroke="black" points="745.98,-141.3 755.98,-137.8 745.98,-134.3 745.98,-141.3"/>
</g>
<!-- ZoneListComponent -->
<g id="node9" class="node">
<title>ZoneListComponent</title>
<polygon fill="#ffffb3" stroke="black" points="155.88,-84.8 24.12,-84.8 24.12,-48.8 155.88,-48.8 155.88,-84.8"/>
<text text-anchor="middle" x="90" y="-62.6" font-family="Times,serif" font-size="14.00">ZoneListComponent</text>
</g>
<!-- ZoneListComponent&#45;&gt;AppModule -->
<g id="edge9" class="edge">
<title>ZoneListComponent&#45;&gt;AppModule</title>
<path fill="none" stroke="black" d="M90,-85.05C90,-107.82 90,-143.8 90,-143.8 90,-143.8 746.09,-143.8 746.09,-143.8"/>
<polygon fill="black" stroke="black" points="746.09,-147.3 756.09,-143.8 746.09,-140.3 746.09,-147.3"/>
</g>
<!-- AppComponent  -->
<g id="node13" class="node">
<title>AppComponent </title>
<polygon fill="#80b1d3" stroke="black" points="852.44,-214.8 743.56,-214.8 743.56,-178.8 852.44,-178.8 852.44,-214.8"/>
<text text-anchor="middle" x="798" y="-192.6" font-family="Times,serif" font-size="14.00">AppComponent </text>
</g>
<!-- AppModule&#45;&gt;AppComponent  -->
<g id="edge12" class="edge">
<title>AppModule&#45;&gt;AppComponent </title>
<path fill="none" stroke="black" stroke-dasharray="1,5" d="M798,-149.91C798,-149.91 798,-168.79 798,-168.79"/>
<polygon fill="black" stroke="black" points="794.5,-168.79 798,-178.79 801.5,-168.79 794.5,-168.79"/>
</g>
<!-- AngularMaterialModule -->
<g id="node11" class="node">
<title>AngularMaterialModule</title>
<polygon fill="#8dd3c7" stroke="black" points="1566.34,-84.8 1563.34,-88.8 1542.34,-88.8 1539.34,-84.8 1413.66,-84.8 1413.66,-48.8 1566.34,-48.8 1566.34,-84.8"/>
<text text-anchor="middle" x="1490" y="-62.6" font-family="Times,serif" font-size="14.00">AngularMaterialModule</text>
</g>
<!-- AngularMaterialModule&#45;&gt;AppModule -->
<g id="edge10" class="edge">
<title>AngularMaterialModule&#45;&gt;AppModule</title>
<path fill="none" stroke="black" d="M1490,-85.05C1490,-107.82 1490,-143.8 1490,-143.8 1490,-143.8 849.73,-143.8 849.73,-143.8"/>
<polygon fill="black" stroke="black" points="849.73,-140.3 839.73,-143.8 849.73,-147.3 849.73,-140.3"/>
</g>
<!-- AppRoutingModule -->
<g id="node12" class="node">
<title>AppRoutingModule</title>
<polygon fill="#8dd3c7" stroke="black" points="1395.27,-84.8 1392.27,-88.8 1371.27,-88.8 1368.27,-84.8 1266.73,-84.8 1266.73,-48.8 1395.27,-48.8 1395.27,-84.8"/>
<text text-anchor="middle" x="1331" y="-62.6" font-family="Times,serif" font-size="14.00">AppRoutingModule</text>
</g>
<!-- AppRoutingModule&#45;&gt;AppModule -->
<g id="edge11" class="edge">
<title>AppRoutingModule&#45;&gt;AppModule</title>
<path fill="none" stroke="black" d="M1331,-85.08C1331,-106.12 1331,-137.8 1331,-137.8 1331,-137.8 849.82,-137.8 849.82,-137.8"/>
<polygon fill="black" stroke="black" points="849.82,-134.3 839.82,-137.8 849.82,-141.3 849.82,-134.3"/>
</g>
</g>
</svg>
